<svg width="26" height="19" viewBox="0 0 26 19" fill="none" xmlns="http://www.w3.org/2000/svg">
<g clip-path="url(#clip0_611_7287)">
<path d="M17.0495 7.05552C15.8448 4.78854 16.6063 2.12259 18.5967 0.795238C20.4823 -0.462366 23.0231 -0.206451 24.6162 1.40757C26.2272 3.03943 26.4581 5.58182 25.1673 7.45477C23.8235 9.40433 21.2594 10.1045 19.0561 9.00536C19.0457 9.04051 19.0336 9.07291 19.0262 9.10641C18.5759 11.207 18.1261 13.3078 17.6758 15.4084C17.5929 15.7948 17.3757 15.9716 16.983 15.9716C13.7981 15.9716 10.6132 15.9716 7.42796 15.9716C7.07429 15.9716 6.89114 15.8489 6.75165 15.5216C5.48087 12.5404 4.20954 9.55947 2.9404 6.57774C2.83276 6.32458 2.65209 6.20129 2.37805 6.20239C1.81982 6.20458 1.26158 6.20623 0.703074 6.20156C0.340346 6.19854 0.0402233 5.91489 0.00315415 5.55409C-0.0328166 5.20207 0.201131 4.85142 0.550129 4.78827C0.763483 4.74983 0.987545 4.7652 1.20666 4.76438C1.87006 4.76218 2.53374 4.76795 3.19714 4.76218C3.56042 4.75889 3.8037 4.91677 3.94374 5.25177C4.17247 5.80012 4.41081 6.34462 4.63899 6.89324C4.68814 7.01104 4.75486 7.05827 4.88557 7.058C8.89425 7.05498 12.9029 7.05552 16.9116 7.05552C16.952 7.05552 16.9926 7.05552 17.0492 7.05552H17.0495ZM21.2361 8.52483C23.2562 8.55531 24.963 6.87073 24.9957 4.8138C25.0284 2.74837 23.3655 1.0355 21.2976 1.00447C19.2121 0.973445 17.5061 2.63057 17.4751 4.71797C17.4443 6.80126 19.1154 8.49271 21.2361 8.52483ZM9.7073 8.51028H5.34138C5.34879 8.53966 5.35099 8.55778 5.35786 8.57399C5.65688 9.27583 5.95837 9.97657 6.25355 10.6801C6.2898 10.7666 6.34527 10.7638 6.41501 10.7638C7.46695 10.7633 8.51889 10.7635 9.57083 10.763C9.61504 10.763 9.65925 10.7583 9.7073 10.7556V8.51028ZM17.678 8.50781H14.0979V10.7633C14.3687 10.7633 14.629 10.7633 14.8893 10.7633C15.6161 10.7633 16.3429 10.7633 17.07 10.763C17.1318 10.763 17.1947 10.7786 17.2148 10.6834C17.3652 9.96394 17.5204 9.24562 17.6783 8.50781H17.678ZM14.0957 14.5174H16.391C16.5903 13.5863 16.7878 12.6634 16.9866 11.7336H14.0957V14.5174ZM13.1188 14.5201V11.7331H10.6865V14.5201H13.1188ZM6.71349 11.7306C6.72969 11.7776 6.7404 11.8163 6.75577 11.8528C7.1207 12.7103 7.48755 13.5668 7.84972 14.4254C7.8846 14.5081 7.93045 14.5284 8.01393 14.5278C8.53536 14.5243 9.05653 14.5262 9.57797 14.5256C9.62135 14.5256 9.66474 14.5201 9.7062 14.5174V11.7306H6.71376H6.71349ZM10.6837 10.7539H13.1196V8.50753H10.6837V10.7539Z" fill="white"/>
<path d="M16.4724 18.9982C15.7154 18.9968 15.102 18.3817 15.105 17.6266C15.1077 16.8726 15.7313 16.2553 16.4826 16.263C17.235 16.2707 17.8418 16.8803 17.8432 17.6299C17.8445 18.3847 17.2286 18.9995 16.4724 18.9984V18.9982Z" fill="white"/>
<path d="M9.50713 17.6395C9.50383 18.3979 8.89096 19.0026 8.13035 18.9979C7.37881 18.9935 6.77527 18.3836 6.77637 17.6299C6.77747 16.871 7.39144 16.2584 8.14655 16.2625C8.90496 16.2669 9.51042 16.8795 9.50713 17.6392V17.6395Z" fill="white"/>
<path d="M21.9734 5.50431V7.25919H20.4964V5.50952H18.7412V4.02374H20.4922V2.27051H21.9734V4.01797H23.7266V5.50431H21.9736H21.9734Z" fill="white"/>
</g>
<defs>
<clipPath id="clip0_611_7287">
<rect width="26" height="18.9981" fill="white"/>
</clipPath>
</defs>
</svg>
