<svg width="22" height="21" viewBox="0 0 22 21" fill="none" xmlns="http://www.w3.org/2000/svg">
<path d="M10.7335 19.5956C10.4882 19.443 0.946289 13.4737 0.946289 6.76379C0.946289 3.78522 3.3609 1.37061 6.33948 1.37061C8.14522 1.37061 9.74368 2.25805 10.7225 3.62059C11.7014 2.25805 13.2998 1.37061 15.1056 1.37061C18.0842 1.37061 20.4988 3.78522 20.4988 6.76379C20.4988 13.4693 10.9977 19.4315 10.7389 19.5928C10.7385 19.5966 10.7383 19.5985 10.7383 19.5985C10.7383 19.5985 10.7363 19.5973 10.7335 19.5956Z" stroke="white" stroke-width="1.9" stroke-linecap="round" stroke-linejoin="round"/>
<path d="M4.28613 7.64723C4.28613 6.02745 5.59922 4.71436 7.21901 4.71436" stroke="white" stroke-width="1.9" stroke-linecap="round" stroke-linejoin="round"/>
</svg>
