<?xml version="1.0" encoding="utf-8"?>
<!-- Generator: Adobe Illustrator 27.3.1, SVG Export Plug-In . SVG Version: 6.00 Build 0)  -->
<svg version="1.1" id="Layer_1" xmlns="http://www.w3.org/2000/svg" xmlns:xlink="http://www.w3.org/1999/xlink" x="0px" y="0px"
	 viewBox="0 0 1080 1080" style="enable-background:new 0 0 1080 1080;" xml:space="preserve">
<style type="text/css">
	.st0{fill:#101229;}
	.st1{fill:url(#SVGID_1_);}
</style>
<rect x="-3.04" y="-3.04" class="st0" width="1086.07" height="1086.07"/>
<linearGradient id="SVGID_1_" gradientUnits="userSpaceOnUse" x1="540" y1="1535.9816" x2="540" y2="403.7966">
	<stop  offset="5.586592e-03" style="stop-color:#A27754"/>
	<stop  offset="1" style="stop-color:#E1B980"/>
</linearGradient>
<path class="st1" d="M136.89,310.76C72.43,444.46,62.73,580.61,122.99,718c66.79,152.27,223.46,225.93,389.43,185.66
	c157.65-38.26,252.29-170.52,242.35-338.52c-0.33-5.61,0.61-11.29,0.95-16.73c20.25,0,38.1,0,60.08,0
	c0,102.44-1.3,203.05,0.8,303.59c0.62,29.87-9.46,46.26-35.17,59.14c-151.58,75.89-306.13,82.44-464.08,22.49
	c-9.1-3.46-18.13-7.13-27.19-10.7c-1.1,3.25-2.2,6.5-3.3,9.76c48.78,16.25,96.64,36.55,146.54,47.93
	c110.43,25.19,219,11.61,323.47-30.19c37.98-15.19,72.76-19.05,110.98-1.86c26.13,11.75,54.83,17.77,86.29,27.58
	c0-100.69-0.11-196.33,0.04-291.97c0.08-52.75-6.9-107.24,43.08-152.93c-79.28,0-150.5-0.4-221.71,0.31
	c-16.11,0.16-24.87-2.02-29.89-20.59C705.21,361.2,603.88,275.12,455.51,242.57c-43.24-9.49-88.42-10.11-136.46-15.19
	C392.22,140.69,482.93,97,594.25,106.12c170.77,14,287.52,105.06,357.39,267.24c0-91.58,0-176.04,0-262.07
	c-50.71,44.28-82.25,50.96-146.74,31.57c-15.57-4.68-30.85-10.41-46.1-16.1c-84.2-31.4-170.9-45.18-260.78-38.29
	c-116.42,8.92-217.42,50.53-299.32,135.66c-22.86,24.03-40.09,48.29-52.88,69.88C141.22,302.54,138.9,306.61,136.89,310.76z
	 M280.86,288.53c12.88-30.04,30.2-42.47,64.24-41.23c119.32,4.35,226.98,34.78,309.53,127.03c39.27,43.89,63.86,95.38,77.99,158.04
	c-73.16,0-143.43,0-213.69,0c-0.08,3.63-0.16,7.25-0.24,10.88c71.41,0,142.81,0,212.25,0c37.12,124.02-37.99,277.42-161.91,325.68
	c-47.92,18.66-102.49,24.76-154.48,27.24c-56.49,2.7-97.13-31.97-125.85-78.73c-43.98-71.6-57.01-151.82-59.58-233.83
	C225.94,481.94,240.33,383.04,280.86,288.53z"/>
</svg>
