<svg width="171" height="59" viewBox="0 0 171 59" fill="none" xmlns="http://www.w3.org/2000/svg">
<g clip-path="url(#clip0_22_1043)">
<path d="M45.3733 8.94775V29.3688C45.4325 30.6943 45.8799 31.4819 46.7174 31.7352H40.9623C41.7998 31.4819 42.2471 30.6943 42.3063 29.3688V12.5694C42.2471 11.2457 41.7998 10.4656 40.9623 10.2326L45.3733 8.94775Z" fill="url(#paint0_linear_22_1043)"/>
<path d="M47.5049 24.8409C47.5049 23.8481 47.6954 22.9071 48.0744 22.0216C48.4533 21.136 48.9691 20.3669 49.6236 19.7143C50.2762 19.0617 51.0453 18.5459 51.9308 18.1651C52.8163 17.7861 53.7573 17.5957 54.7501 17.5957C55.7429 17.5957 56.6839 17.7861 57.5694 18.1651C58.455 18.5441 59.224 19.0617 59.8766 19.7143C60.5292 20.3669 61.045 21.136 61.4259 22.0216C61.8049 22.9071 61.9953 23.8481 61.9953 24.8409C61.9953 25.8336 61.8049 26.7746 61.4259 27.6602C61.0469 28.5457 60.5292 29.3166 59.8766 29.9674C59.224 30.62 58.455 31.1358 57.5694 31.5166C56.6839 31.8956 55.7429 32.086 54.7501 32.086C53.7573 32.086 52.8163 31.8956 51.9308 31.5166C51.0453 31.1376 50.2743 30.6218 49.6236 29.9674C48.971 29.3148 48.4552 28.5457 48.0744 27.6602C47.6954 26.7746 47.5049 25.8336 47.5049 24.8409ZM54.7501 31.7348C55.3343 31.7348 55.8797 31.5555 56.3862 31.195C56.8928 30.8344 57.3365 30.3427 57.7155 29.7197C58.0945 29.0966 58.3921 28.3664 58.6066 27.5289C58.821 26.6914 58.9282 25.7948 58.9282 24.8409C58.9282 23.8869 58.821 22.9903 58.6066 22.1528C58.3921 21.3153 58.0945 20.5851 57.7155 19.9621C57.3365 19.3391 56.8928 18.8473 56.3862 18.4868C55.8797 18.1263 55.3343 17.947 54.7501 17.947C54.1659 17.947 53.6205 18.1281 53.114 18.4868C52.6074 18.8473 52.1637 19.3391 51.7847 19.9621C51.4058 20.5851 51.1026 21.3153 50.8789 22.1528C50.6552 22.9903 50.5424 23.8869 50.5424 24.8409C50.5424 25.7948 50.6533 26.6914 50.8789 27.5289C51.1026 28.3664 51.4039 29.0966 51.7847 29.7197C52.1637 30.3427 52.6074 30.8344 53.114 31.195C53.6205 31.5555 54.1659 31.7348 54.7501 31.7348Z" fill="url(#paint1_linear_22_1043)"/>
<path d="M66.8463 17.9751C66.1253 18.208 66.0569 18.9882 66.6411 20.3119L70.6436 28.5794L73.3021 23.0868L71.9285 20.3119C71.2074 18.9882 70.3792 18.208 69.4456 17.9751H75.2007C74.4797 18.208 74.4113 18.9882 74.9955 20.3119L78.998 28.5794L83.0005 20.3119C83.5459 18.9882 83.4682 18.208 82.7657 17.9751H85.9215C84.9675 18.208 84.1282 18.9882 83.4091 20.3119L77.8869 31.7352H77.4783L73.5054 23.5546L69.5325 31.7352H69.1239L63.5722 20.3119C62.8512 18.9882 62.023 18.208 61.0894 17.9751H66.8444H66.8463Z" fill="url(#paint2_linear_22_1043)"/>
<path d="M94.1927 10.2326L98.6038 8.94775V20.0198C99.4986 19.2211 100.454 18.6166 101.467 18.208C102.481 17.7995 103.455 17.5943 104.388 17.5943C104.934 17.5943 105.44 17.6719 105.908 17.8272C106.376 17.9825 106.784 18.221 107.136 18.5427C107.487 18.8643 107.764 19.2692 107.968 19.7554C108.173 20.2416 108.275 20.8166 108.275 21.4784V29.367C108.372 30.6925 108.82 31.4801 109.619 31.7333H103.893C104.692 31.4801 105.139 30.6925 105.237 29.367V21.8297C105.237 20.5633 105.004 19.6722 104.536 19.1564C104.069 18.6406 103.494 18.3818 102.813 18.3818C102.133 18.3818 101.445 18.5667 100.695 18.9364C99.9441 19.3062 99.249 19.7739 98.6057 20.3396V29.367C98.6648 30.6925 99.1122 31.4801 99.9497 31.7333H94.1946C95.0321 31.4801 95.4795 30.6925 95.5386 29.367V12.5676C95.4795 11.2439 95.0321 10.4637 94.1946 10.2308L94.1927 10.2326Z" fill="url(#paint3_linear_22_1043)"/>
<path d="M118.091 17.5966C119.084 17.5966 120.019 17.787 120.896 18.166C121.772 18.545 122.536 19.0571 123.19 19.7004C123.843 20.3438 124.358 21.1018 124.739 21.9799C125.118 22.8562 125.318 23.7917 125.338 24.7844H113.885C113.885 25.6422 113.969 26.489 114.133 27.3264C114.298 28.1639 114.586 28.9089 114.995 29.5615C115.403 30.2141 115.949 30.7355 116.631 31.1256C117.313 31.5157 118.16 31.7098 119.173 31.7098C120.282 31.7098 121.271 31.4657 122.138 30.9795C123.005 30.4933 123.765 29.898 124.418 29.1973C125.07 28.4967 125.625 27.7461 126.083 26.9474C126.54 26.1488 126.915 25.4278 127.207 24.7863V21.6009C127.109 20.2957 126.662 19.5174 125.863 19.2641L130.245 17.9793V20.024C131.14 19.2253 132.095 18.6208 133.108 18.2122C134.122 17.8036 135.096 17.5984 136.029 17.5984C136.575 17.5984 137.085 17.6761 137.564 17.8314C138.041 17.9867 138.455 18.2251 138.806 18.5468C139.158 18.8685 139.435 19.2734 139.638 19.7596C139.843 20.2458 139.945 20.8208 139.945 21.4826V29.3711C140.004 30.6967 140.452 31.4842 141.289 31.7375L135.534 31.7079C136.372 31.4546 136.819 30.6671 136.878 29.3415V21.8043C136.878 21.1424 136.81 20.5878 136.673 20.1386C136.536 19.6912 136.351 19.3251 136.118 19.0423C135.885 18.7594 135.612 18.5709 135.301 18.4729C134.989 18.3749 134.648 18.3472 134.279 18.386C133.343 18.5025 132.541 18.7853 131.868 19.2327C131.197 19.6801 130.598 20.231 130.071 20.8836C129.546 21.5362 129.063 22.2665 128.625 23.0744C128.187 23.8823 127.743 24.7012 127.296 25.5276C126.849 26.3559 126.372 27.16 125.865 27.9384C125.359 28.7167 124.769 29.41 124.098 30.0126C123.427 30.6172 122.641 31.1126 121.746 31.5027C120.85 31.8928 119.788 32.0869 118.561 32.0869C117.509 32.0869 116.516 31.9168 115.581 31.5748C114.645 31.2346 113.828 30.7466 113.127 30.1143C112.427 29.4821 111.87 28.7167 111.462 27.82C111.053 26.9253 110.848 25.9306 110.848 24.8399C110.848 23.8471 111.038 22.9061 111.417 22.0206C111.796 21.135 112.312 20.366 112.967 19.7134C113.619 19.0608 114.388 18.545 115.274 18.1641C116.159 17.7851 117.1 17.5947 118.093 17.5947L118.091 17.5966ZM113.913 24.4332H122.269C122.249 23.5181 122.123 22.6658 121.89 21.8764C121.657 21.087 121.351 20.4011 120.97 19.8169C120.589 19.2327 120.156 18.7761 119.67 18.4433C119.184 18.1124 118.657 17.946 118.093 17.946C117.529 17.946 117.026 18.1124 116.529 18.4433C116.032 18.7742 115.594 19.2327 115.215 19.8169C114.836 20.4011 114.532 21.087 114.309 21.8764C114.085 22.6658 113.954 23.5181 113.915 24.4332H113.913ZM127.206 29.3489V28.1842C127.206 27.6611 127.303 27.0824 127.498 26.4501C127.692 25.8197 127.936 25.193 128.228 24.57C128.52 23.9488 128.845 23.3554 129.206 22.7934C129.566 22.2295 129.912 21.7544 130.243 21.3661V29.3711C130.341 30.6967 130.788 31.4842 131.587 31.7375L125.861 31.7079C126.66 31.4546 127.108 30.6689 127.206 29.3489Z" fill="url(#paint4_linear_22_1043)"/>
<path d="M154.522 17.9751V29.3688C154.581 30.6944 155.029 31.4819 155.866 31.7352H150.111C150.949 31.4819 151.396 30.6944 151.455 29.3688V21.5968C151.396 20.2916 150.949 19.5132 150.111 19.26L154.522 17.9751Z" fill="url(#paint5_linear_22_1043)"/>
<path d="M164.426 17.5957C165.108 17.5957 165.696 17.6549 166.193 17.7713C166.691 17.8878 167.138 18.0098 167.537 18.1374C167.937 18.2649 168.292 18.3851 168.604 18.5034C168.915 18.6199 169.227 18.6791 169.539 18.6791C170.222 18.6791 170.708 18.3962 171 17.8323V22.4486C170.786 21.7276 170.464 21.0898 170.037 20.5352C169.608 19.9806 169.116 19.5128 168.561 19.132C168.007 18.753 167.412 18.4646 166.779 18.2705C166.147 18.0764 165.509 17.9784 164.866 17.9784C163.969 17.9784 163.215 18.1873 162.601 18.607C161.987 19.0266 161.496 19.5609 161.126 20.2135C160.756 20.8661 160.488 21.5964 160.322 22.4042C160.155 23.2121 160.074 24.0256 160.074 24.8446C160.074 25.6636 160.157 26.4807 160.322 27.2978C160.486 28.115 160.754 28.8508 161.126 29.5034C161.496 30.156 161.987 30.6866 162.601 31.0951C163.215 31.5037 163.969 31.7181 164.866 31.7385C165.509 31.7385 166.147 31.6405 166.779 31.4464C167.412 31.2523 168.007 30.9639 168.561 30.5849C169.116 30.2059 169.608 29.7382 170.037 29.1817C170.466 28.6271 170.786 27.9893 171 27.2683V31.8549C170.708 31.2911 170.222 31.0082 169.539 31.0082C169.227 31.0082 168.916 31.0674 168.604 31.1839C168.292 31.3003 167.937 31.4279 167.537 31.5628C167.138 31.6997 166.691 31.8217 166.193 31.9289C165.696 32.0361 165.108 32.0897 164.426 32.0897C163.413 32.0694 162.453 31.8753 161.547 31.5055C160.642 31.1358 159.858 30.6292 159.196 29.9859C158.534 29.3425 158.007 28.5827 157.619 27.7064C157.229 26.8301 157.035 25.8762 157.035 24.8427C157.035 23.8093 157.229 22.8516 157.619 21.9642C158.009 21.0787 158.534 20.3133 159.196 19.67C159.858 19.0266 160.642 18.5219 161.547 18.1503C162.453 17.7806 163.413 17.5957 164.426 17.5957Z" fill="url(#paint6_linear_22_1043)"/>
<path d="M19.4062 9.39877C20.8593 9.55221 22.2273 9.5707 23.5362 9.8591C28.0268 10.8445 31.092 13.4493 32.3177 17.9806C32.4693 18.5426 32.7337 18.6091 33.2217 18.6036C35.3773 18.5814 37.5311 18.5943 39.9308 18.5943C38.4185 19.9772 38.6292 21.6263 38.6274 23.2217C38.6219 26.1168 38.6274 29.0101 38.6274 32.0568C37.6753 31.761 36.8064 31.578 36.0151 31.223C34.8578 30.7035 33.8059 30.82 32.656 31.2785C29.4947 32.543 26.2095 32.9534 22.867 32.1917C21.3566 31.8479 19.909 31.2323 18.4319 30.7405C18.4652 30.6425 18.4984 30.5445 18.5317 30.4447C18.8053 30.5519 19.0789 30.6647 19.3544 30.7682C24.1352 32.5818 28.8125 32.384 33.3992 30.0879C34.1775 29.6978 34.4826 29.2024 34.4641 28.2983C34.4012 25.2553 34.44 22.2105 34.44 19.1101H32.6227C32.6116 19.2747 32.5839 19.4466 32.5932 19.6167C32.8945 24.7007 30.0308 28.7032 25.2592 29.8605C20.2362 31.0788 15.4961 28.8511 13.4736 24.2422C11.6508 20.0844 11.9429 15.9636 13.8951 11.9186C13.9617 11.7818 14.0375 11.6505 14.2001 11.3436C13.8064 11.5008 13.5586 11.5729 13.3349 11.693C8.8869 14.0871 6.21919 17.8937 4.90659 22.6579C2.5661 31.1472 4.41298 38.6031 10.8761 44.6855C14.4072 48.0076 18.8109 49.6049 23.5806 50.1096C29.5446 50.7419 35.4457 50.0782 41.3339 49.1039C52.3912 47.2718 63.1027 44.0236 73.9141 41.1858C82.7399 38.8694 91.599 36.7156 100.667 35.61C106.145 34.9426 111.654 34.4786 117.132 35.7025C121.138 36.5973 124.75 38.2685 127.339 41.5759C130.585 45.7281 131.276 50.3093 129.191 55.2084C128.646 56.4914 127.795 57.5803 126.557 58.3254C126.997 57.8096 127.475 57.3234 127.871 56.7761C131.391 51.8936 130.054 44.996 124.872 41.3873C121.29 38.8915 117.189 38.1225 112.939 38.091C105.762 38.0374 98.6649 38.9507 91.6656 40.4463C82.7214 42.3579 73.829 44.5117 64.9034 46.512C56.8485 48.3164 48.812 50.2279 40.5871 51.1468C34.281 51.8511 27.9824 52.073 21.7337 50.6716C14.8583 49.1279 8.86287 46.0387 4.49987 40.3483C-0.0590946 34.4065 -1.33472 27.8269 1.50863 20.7814C3.82878 15.0355 8.4506 11.8613 14.2686 10.2178C14.7917 10.0699 15.3353 9.74633 15.7106 9.35255C18.1989 6.7403 21.2734 5.46652 24.8211 5.19476C27.5406 4.98586 30.1639 5.40367 32.7133 6.35391C33.1755 6.52585 33.6377 6.69963 34.1091 6.84013C36.0614 7.42618 37.0153 7.22467 38.5498 5.88434V13.8154C36.4348 8.90701 32.9019 6.1524 27.7347 5.7272C24.3663 5.45173 21.6209 6.77358 19.4062 9.39692V9.39877ZM31.9221 18.6295C31.495 16.7327 30.75 15.1742 29.5612 13.8468C27.0636 11.0552 23.8043 10.1346 20.1937 10.0033C19.164 9.96633 18.6389 10.3416 18.2489 11.2512C17.0232 14.1112 16.5869 17.1043 16.683 20.1806C16.7606 22.6615 17.1544 25.0908 18.4855 27.2575C19.3544 28.6736 20.5838 29.7218 22.2939 29.6405C23.8672 29.5647 25.5181 29.3817 26.9693 28.816C30.7204 27.3555 32.9925 22.7133 31.8684 18.9604H25.446C25.4478 18.8513 25.4515 18.7404 25.4534 18.6313H31.9202L31.9221 18.6295Z" fill="url(#paint7_linear_22_1043)"/>
<path d="M138.268 -0.000104396C139.44 1.64342 139.684 3.46441 139.078 5.3797C138.392 7.54271 136.884 8.97732 134.852 9.89429C132.622 10.9 130.271 11.0738 127.862 10.937C122.968 10.6597 118.263 9.46354 113.615 8.00674C108.352 6.35582 103.118 4.59953 97.8292 3.03181C94.25 1.97249 90.5655 1.34392 86.8034 1.70812C83.4516 2.03165 80.4863 3.18341 78.5322 6.13583C76.5318 9.1548 77.1641 13.0686 79.9446 15.1096C82.1057 16.6958 85.415 16.339 86.9476 14.3516C88.0882 12.8744 87.981 11.2513 86.5852 10.0422C87.3321 9.82034 88.0254 9.61698 88.7168 9.41177C89.3916 9.21211 90.0664 9.01245 90.8244 8.7869C90.841 9.11228 90.8632 9.35076 90.8632 9.5911C90.8613 16.0727 90.8558 22.5562 90.8502 29.0379C90.8502 30.0972 90.9649 31.1121 92.0612 31.859H86.6481C87.7166 31.0622 87.8017 29.9733 87.7998 28.8512C87.798 24.3939 87.7998 19.9384 87.7998 15.4811V14.8359C86.674 15.3647 85.6387 16.0598 84.4999 16.3482C81.2609 17.1635 78.2659 16.62 75.9754 14.0077C73.5129 11.1976 74.0545 7.25246 77.1733 4.68457C79.7024 2.60291 82.7047 1.69703 85.8956 1.27552C91.342 0.556363 96.6608 1.36611 101.915 2.69534C107.067 3.9987 112.177 5.46843 117.324 6.79767C121.502 7.87733 125.739 8.60757 130.077 8.58169C132.077 8.56875 134 8.22674 135.795 7.28204C138.026 6.10994 139.949 3.23517 138.266 -0.00195312L138.268 -0.000104396Z" fill="url(#paint8_linear_22_1043)"/>
<path d="M148.009 31.8612H142.596C143.663 31.0644 143.748 29.9755 143.748 28.8552C143.748 24.3979 143.748 19.9406 143.748 15.4852V14.84C142.6 15.3262 141.559 15.6405 140.692 15.8512C141.565 15.572 142.345 15.0692 142.896 14.3556C144.034 12.8766 143.929 11.2534 142.533 10.0462C143.28 9.82435 143.973 9.61914 144.665 9.41393C145.34 9.21427 146.014 9.01461 146.772 8.78906C146.789 9.11444 146.811 9.35477 146.811 9.59326C146.809 16.0768 146.804 22.5584 146.798 29.04C146.798 30.0994 146.913 31.1143 148.011 31.8612H148.009Z" fill="url(#paint9_linear_22_1043)"/>
<path d="M86.587 10.0442C86.587 10.0442 90.3252 8.9812 99.6095 5.94189C99.6095 5.94189 90.8668 9.22893 90.865 12.3089" fill="url(#paint10_linear_22_1043)"/>
<path d="M142.531 10.0349C142.531 10.0349 146.27 8.97193 155.554 5.93262C155.554 5.93262 146.811 9.21966 146.809 12.2996" fill="url(#paint11_linear_22_1043)"/>
<path d="M150.113 14.5031C150.352 14.468 150.592 14.4384 150.83 14.394C151.017 14.3589 151.202 14.3145 151.381 14.2591C151.792 14.1333 152.056 13.8579 152.187 13.4493C152.285 13.1443 152.335 12.83 152.38 12.5139C152.394 12.4048 152.407 12.2976 152.435 12.1885C152.45 12.2976 152.459 12.4066 152.478 12.5139C152.528 12.7893 152.572 13.0666 152.637 13.3384C152.759 13.8542 153.088 14.1685 153.6 14.2997C153.96 14.394 154.328 14.4439 154.696 14.4901C154.713 14.492 154.727 14.4938 154.746 14.5086C154.731 14.5123 154.715 14.5142 154.7 14.5179C154.339 14.5622 153.981 14.614 153.627 14.7009C153.084 14.834 152.753 15.1705 152.622 15.714C152.537 16.0634 152.487 16.4184 152.442 16.7752C152.441 16.79 152.439 16.8066 152.424 16.8214C152.418 16.7752 152.411 16.7308 152.405 16.6846C152.361 16.3426 152.317 16.0006 152.222 15.6678C152.16 15.4515 152.075 15.2444 151.917 15.0762C151.738 14.8821 151.507 14.7822 151.259 14.712C150.93 14.6177 150.592 14.5752 150.254 14.5308C150.205 14.5253 150.159 14.5179 150.111 14.5105C150.111 14.5086 150.111 14.5049 150.113 14.5031Z" fill="url(#paint12_linear_22_1043)"/>
</g>
<defs>
<linearGradient id="paint0_linear_22_1043" x1="43.8389" y1="49.0005" x2="43.8389" y2="14.738" gradientUnits="userSpaceOnUse">
<stop stop-color="#A27754"/>
<stop offset="1" stop-color="#E1B980"/>
</linearGradient>
<linearGradient id="paint1_linear_22_1043" x1="54.7501" y1="49.0001" x2="54.7501" y2="14.7376" gradientUnits="userSpaceOnUse">
<stop stop-color="#A27754"/>
<stop offset="1" stop-color="#E1B980"/>
</linearGradient>
<linearGradient id="paint2_linear_22_1043" x1="73.5073" y1="49.0005" x2="73.5073" y2="14.738" gradientUnits="userSpaceOnUse">
<stop stop-color="#A27754"/>
<stop offset="1" stop-color="#E1B980"/>
</linearGradient>
<linearGradient id="paint3_linear_22_1043" x1="101.906" y1="49.0005" x2="101.906" y2="14.738" gradientUnits="userSpaceOnUse">
<stop stop-color="#A27754"/>
<stop offset="1" stop-color="#E1B980"/>
</linearGradient>
<linearGradient id="paint4_linear_22_1043" x1="126.067" y1="49.0009" x2="126.067" y2="14.7384" gradientUnits="userSpaceOnUse">
<stop stop-color="#A27754"/>
<stop offset="1" stop-color="#E1B980"/>
</linearGradient>
<linearGradient id="paint5_linear_22_1043" x1="152.988" y1="49.0005" x2="152.988" y2="14.738" gradientUnits="userSpaceOnUse">
<stop stop-color="#A27754"/>
<stop offset="1" stop-color="#E1B980"/>
</linearGradient>
<linearGradient id="paint6_linear_22_1043" x1="164.017" y1="49.0001" x2="164.017" y2="14.7376" gradientUnits="userSpaceOnUse">
<stop stop-color="#A27754"/>
<stop offset="1" stop-color="#E1B980"/>
</linearGradient>
<linearGradient id="paint7_linear_22_1043" x1="65.1881" y1="49.0004" x2="65.1881" y2="14.7379" gradientUnits="userSpaceOnUse">
<stop stop-color="#A27754"/>
<stop offset="1" stop-color="#E1B980"/>
</linearGradient>
<linearGradient id="paint8_linear_22_1043" x1="106.916" y1="49.0004" x2="106.916" y2="14.738" gradientUnits="userSpaceOnUse">
<stop stop-color="#A27754"/>
<stop offset="1" stop-color="#E1B980"/>
</linearGradient>
<linearGradient id="paint9_linear_22_1043" x1="144.349" y1="44.2736" x2="144.349" y2="19.4618" gradientUnits="userSpaceOnUse">
<stop stop-color="#A27754"/>
<stop offset="1" stop-color="#E1B980"/>
</linearGradient>
<linearGradient id="paint10_linear_22_1043" x1="93.0983" y1="49.0006" x2="93.0983" y2="14.7381" gradientUnits="userSpaceOnUse">
<stop stop-color="#A27754"/>
<stop offset="1" stop-color="#E1B980"/>
</linearGradient>
<linearGradient id="paint11_linear_22_1043" x1="149.043" y1="48.9914" x2="149.043" y2="14.7289" gradientUnits="userSpaceOnUse">
<stop stop-color="#A27754"/>
<stop offset="1" stop-color="#E1B980"/>
</linearGradient>
<linearGradient id="paint12_linear_22_1043" x1="152.428" y1="49.0004" x2="152.428" y2="14.7379" gradientUnits="userSpaceOnUse">
<stop stop-color="#A27754"/>
<stop offset="1" stop-color="#E1B980"/>
</linearGradient>
<clipPath id="clip0_22_1043">
<rect width="171" height="58.3292" fill="white"/>
</clipPath>
</defs>
</svg>
